name rise34.3697peak60.0498fall86.3158.mot
datacolumns 19
datarows 14
range 9.44663200000000 9.46830600000000
endheader
time	ground_force1_vx	ground_force1_vy	ground_force1_vz	ground_force1_px	ground_force1_py	ground_force1_pz	ground_force2_vx	ground_force2_vy	ground_force2_vz	ground_force2_px	ground_force2_py	ground_force2_pz	ground_torque1_x	ground_torque1_y	ground_torque1_z	ground_torque2_x	ground_torque2_y	ground_torque2_z	
9.44663200000000	-41.00266000000000	810.35050000000001	54.61772600000000	0.20974300000000	0.00000000000000	0.11292200000000	-10.44480500000000	45.79678300000000	4.94416600000000	0.43542800000000	0.00000000000000	-0.06869400000000	0.00000000000000	30.23658300000000	0.00000000000000	0.00000000000000	3.50753100000000	0.00000000000000	
9.44829900000000	-41.52620700000000	807.56596200000001	54.38758500000000	0.20863700000000	0.00000000000000	0.11283000000000	-11.29964000000000	52.35961000000000	5.42704700000000	0.43668700000000	0.00000000000000	-0.06918800000000	0.00000000000000	30.11342500000000	0.00000000000000	0.00000000000000	3.87382100000000	0.00000000000000	
9.44996100000000	-42.06285200000000	804.64102100000002	54.13190600000000	0.20752200000000	0.00000000000000	0.11273600000000	-11.97815600000000	58.85943600000000	5.84357300000000	0.43790400000000	0.00000000000000	-0.06964300000000	0.00000000000000	29.98468000000000	0.00000000000000	0.00000000000000	4.19916100000000	0.00000000000000	
9.45162900000000	-42.61238000000000	801.57603300000005	53.85064600000000	0.20640000000000	0.00000000000000	0.11263900000000	-12.46535600000000	65.23069800000000	6.18559400000000	0.43908600000000	0.00000000000000	-0.07006400000000	0.00000000000000	29.85045300000000	0.00000000000000	0.00000000000000	4.47771200000000	0.00000000000000	
9.45330500000000	-43.17451200000000	798.37139500000001	53.54380800000000	0.20527000000000	0.00000000000000	0.11253900000000	-12.75593400000000	71.43284000000000	6.44898800000000	0.44024100000000	0.00000000000000	-0.07045500000000	0.00000000000000	29.71085600000000	0.00000000000000	0.00000000000000	4.70631100000000	0.00000000000000	
9.45496500000000	-43.74890300000000	795.02754000000004	53.21144500000000	0.20413400000000	0.00000000000000	0.11243700000000	-12.85340800000000	77.44978200000000	6.63337100000000	0.44137300000000	0.00000000000000	-0.07082000000000	0.00000000000000	29.56599900000000	0.00000000000000	0.00000000000000	4.88430900000000	0.00000000000000	
9.45662700000000	-44.33513900000000	791.54493100000002	52.85366000000000	0.20299300000000	0.00000000000000	0.11233100000000	-12.76867500000000	83.28745100000000	6.74156300000000	0.44248800000000	0.00000000000000	-0.07116200000000	0.00000000000000	29.41599900000000	0.00000000000000	0.00000000000000	5.01322100000000	0.00000000000000	
9.45830100000000	-44.93273700000000	787.92406100000005	52.47060300000000	0.20184600000000	0.00000000000000	0.11222200000000	-12.51820800000000	88.96993700000000	6.77887100000000	0.44358800000000	0.00000000000000	-0.07148300000000	0.00000000000000	29.26097200000000	0.00000000000000	0.00000000000000	5.09626800000000	0.00000000000000	
9.45996800000000	-45.54114600000000	784.16544099999999	52.06247400000000	0.20069500000000	0.00000000000000	0.11211100000000	-12.12210300000000	94.53480800000000	6.75230300000000	0.44467800000000	0.00000000000000	-0.07178600000000	0.00000000000000	29.10103500000000	0.00000000000000	0.00000000000000	5.13785000000000	0.00000000000000	
9.46162600000000	-46.15974600000000	780.26960699999995	51.62952000000000	0.19954100000000	0.00000000000000	0.11199600000000	-11.60216900000000	100.02813700000000	6.66977500000000	0.44575900000000	0.00000000000000	-0.07207200000000	0.00000000000000	28.93630700000000	0.00000000000000	0.00000000000000	5.14302300000000	0.00000000000000	
9.46330800000000	-46.78784800000000	776.23710700000004	51.17203200000000	0.19838500000000	0.00000000000000	0.11187800000000	-10.98020500000000	105.49968600000000	6.53938900000000	0.44683500000000	0.00000000000000	-0.07234300000000	0.00000000000000	28.76690300000000	0.00000000000000	0.00000000000000	5.11700900000000	0.00000000000000	
9.46496200000000	-47.42469600000000	772.06850399999996	50.69035000000000	0.19722700000000	0.00000000000000	0.11175600000000	-10.27656600000000	110.99860300000000	6.36881100000000	0.44790700000000	0.00000000000000	-0.07260000000000	0.00000000000000	28.59293900000000	0.00000000000000	0.00000000000000	5.06477600000000	0.00000000000000	
9.46663200000000	-48.06946200000000	767.76437399999998	50.18486000000000	0.19607000000000	0.00000000000000	0.11163200000000	-9.50908900000000	116.56988800000001	6.16479900000000	0.44897700000000	0.00000000000000	-0.07284400000000	0.00000000000000	28.41452800000000	0.00000000000000	0.00000000000000	4.99071300000000	0.00000000000000	
9.46830600000000	-48.72125500000000	763.32530299999996	49.65598900000000	0.19491300000000	0.00000000000000	0.11150400000000	-8.69239100000000	122.25176600000000	5.93288100000000	0.45004500000000	0.00000000000000	-0.07307700000000	0.00000000000000	28.23177900000000	0.00000000000000	0.00000000000000	4.89840000000000	0.00000000000000	
